<?xml version="1.0" standalone="no"?>
<!DOCTYPE svg PUBLIC "-//W3C//DTD SVG 20010904//EN"
 "http://www.w3.org/TR/2001/REC-SVG-20010904/DTD/svg10.dtd">
<svg version="1.0" xmlns="http://www.w3.org/2000/svg"
 width="928.000000pt" height="1280.000000pt" viewBox="0 0 928.000000 1280.000000"
 preserveAspectRatio="xMidYMid meet">
<metadata>
Created by potrace 1.15, written by Peter Selinger 2001-2017
</metadata>
<g transform="translate(0.000000,1280.000000) scale(0.100000,-0.100000)"
fill="#000000" stroke="none">
<path d="M3405 12794 c-22 -2 -92 -9 -155 -14 -363 -34 -666 -106 -1035 -247
-370 -142 -732 -246 -1049 -303 -60 -11 -111 -22 -114 -24 -10 -11 -5 -226 7
-276 59 -246 272 -409 628 -479 83 -16 88 -18 91 -44 5 -44 -24 -128 -68 -196
-22 -34 -112 -136 -199 -225 -166 -171 -207 -231 -218 -318 -4 -29 -15 -52
-34 -71 -51 -52 -59 -119 -34 -292 22 -148 20 -202 -10 -261 -66 -131 -216
-290 -560 -596 -334 -297 -450 -424 -495 -546 -27 -72 -24 -156 10 -226 71
-147 279 -278 480 -303 60 -7 65 -10 68 -34 2 -19 -14 -52 -52 -112 -93 -142
-166 -315 -166 -393 0 -14 -10 -26 -29 -34 -34 -13 -56 -58 -46 -92 3 -13 33
-80 67 -150 l61 -128 -52 -48 c-48 -45 -51 -51 -51 -98 0 -53 32 -117 80 -159
24 -22 48 -64 60 -106 7 -24 3 -35 -29 -71 -121 -137 -217 -306 -247 -434 -21
-88 -14 -252 14 -340 61 -193 187 -321 338 -340 38 -5 60 -16 99 -50 81 -71
88 -78 134 -138 56 -75 159 -162 334 -283 78 -54 180 -130 227 -169 174 -145
366 -365 546 -628 290 -421 435 -552 664 -600 39 -8 74 -17 78 -20 3 -3 -12
-106 -33 -229 l-38 -222 -41 -50 c-23 -27 -123 -137 -223 -243 -253 -268 -313
-363 -299 -472 5 -44 3 -48 -84 -170 -152 -214 -325 -471 -385 -573 -106 -183
-212 -416 -284 -628 l-36 -106 -110 -90 c-155 -127 -260 -227 -762 -725 l-442
-438 4635 0 c4410 0 4635 1 4630 18 -3 9 -17 69 -31 132 -34 151 -195 794
-246 985 -333 1244 -683 2292 -1104 3305 -128 308 -356 813 -456 1012 -22 44
-38 82 -36 85 3 2 50 -8 106 -22 512 -129 967 -87 1254 119 61 43 207 188 207
205 0 4 -28 14 -62 20 -478 91 -790 411 -928 952 -60 235 -75 380 -75 734 0
312 7 424 46 705 35 258 64 346 297 900 162 387 228 639 247 940 17 263 -54
610 -176 867 -120 253 -368 468 -774 670 -247 124 -433 197 -945 373 -157 54
-310 108 -340 120 -96 37 -231 114 -405 230 -93 61 -203 129 -245 150 -178 90
-429 153 -730 185 -85 9 -270 30 -410 46 -460 54 -532 60 -780 63 -135 2 -263
2 -285 0z"/>
</g>
</svg>
